<svg xmlns="http://www.w3.org/2000/svg" version="1.1" xmlns:xlink="http://www.w3.org/1999/xlink" xmlns:svgjs="http://svgjs.dev/svgjs" width="2000" height="636" viewBox="0 0 2000 636"><g transform="matrix(1,0,0,1,-1.2121212121212466,0.22366834708759598)"><svg viewBox="0 0 396 126" data-background-color="#ffffff" preserveAspectRatio="xMidYMid meet" height="636" width="2000" xmlns="http://www.w3.org/2000/svg" xmlns:xlink="http://www.w3.org/1999/xlink"><g id="tight-bounds" transform="matrix(1,0,0,1,0.2400000000000091,-0.04431165366830214)"><svg viewBox="0 0 395.52 126.0886233073366" height="126.0886233073366" width="395.52"><g><svg viewBox="0 0 682.386042406964 217.53923101546295" height="126.0886233073366" width="395.52"><g transform="matrix(1,0,0,1,286.8660424069639,35.35383902949886)"><svg viewBox="0 0 395.52 146.83155295646523" height="146.83155295646523" width="395.52"><g id="textblocktransform"><svg viewBox="0 0 395.52 146.83155295646523" height="146.83155295646523" width="395.52" id="textblock"><g><svg viewBox="0 0 395.52 146.83155295646523" height="146.83155295646523" width="395.52"><g transform="matrix(1,0,0,1,0,0)"><svg width="395.52" viewBox="-0.15 -32.57 112.71000000000001 41.85" height="146.83155295646523" data-palette-color="#ff5858"><g class="wordmark-text-0" data-fill-palette-color="primary" id="text-0"><path d="M-0.15-19.48L2.83-18.46 9.62 0.68 12.72 0.24 19.38-18.51 22.02-19.51 22.31-21.31 12.96-21.31 12.62-19.48 16.55-18.46 11.87-4.74 7.28-18.51 10.82-19.51 11.01-21.31 0.1-21.31-0.15-19.48ZM32.54 0.73Q34.93 0.73 37.02-0.13 39.11-1 40.57-2.54L40.57-2.54 40.06-3.83Q38.86-3.2 37.96-2.91 37.06-2.61 36.37-2.55 35.69-2.49 34.52-2.49L34.52-2.49Q32.37-2.49 30.87-3.72 29.37-4.96 28.59-6.88 27.81-8.81 27.71-10.86L27.71-10.86 39.52-11.01Q39.67-11.65 39.79-12.63 39.91-13.62 39.91-14.18L39.91-14.18Q39.91-16.67 39.05-18.42 38.18-20.17 36.69-21.06 35.2-21.95 33.4-21.95L33.4-21.95Q30.95-21.95 28.64-20.56 26.32-19.17 24.84-16.55 23.36-13.94 23.36-10.45L23.36-10.45Q23.36-6.91 24.66-4.37 25.95-1.83 28.06-0.55 30.17 0.73 32.54 0.73L32.54 0.73ZM32.2-19.56Q35.57-19.56 35.57-15.01L35.57-15.01Q35.57-14.65 35.53-14.12 35.5-13.6 35.42-13.33L35.42-13.33 27.76-12.77Q27.88-15.01 28.55-16.54 29.22-18.07 30.2-18.81 31.17-19.56 32.2-19.56L32.2-19.56ZM56.1 0L56.34-2.12 50.65-2.95 50.65-12.3Q50.9-14.04 51.62-15.23 52.34-16.43 53.22-17.03 54.1-17.63 54.83-17.63L54.83-17.63Q55.54-17.63 56.32-17.37 57.1-17.11 57.81-16.67L57.81-16.67Q59.2-17.85 59.2-19.38L59.2-19.38Q59.2-20.48 58.44-21.3 57.69-22.12 56.49-22.12L56.49-22.12Q55.39-22.12 54.27-21.37 53.14-20.63 52.14-19.14 51.14-17.65 50.51-15.53L50.51-15.53 50.04-15.53 50.53-21.14 49.97-21.73 42.96-20.83 42.62-18.97 46.6-17.77 46.6-2.78 42.87-1.81 42.62 0 56.1 0ZM66.3-26.12Q67.08-26.12 67.78-26.53 68.47-26.93 68.88-27.61 69.28-28.3 69.28-29.1L69.28-29.1Q69.28-30.27 68.4-31.08 67.52-31.88 66.3-31.88L66.3-31.88Q65.13-31.88 64.26-31.09 63.4-30.3 63.4-29.15L63.4-29.15Q63.4-28.34 63.79-27.65 64.18-26.95 64.85-26.54 65.52-26.12 66.3-26.12L66.3-26.12ZM60.49 0L72.21 0 72.48-1.95 68.57-2.83 68.57-21 67.96-21.61 61.1-21.04 60.78-19.19 64.47-17.85 64.47-2.83 60.78-1.93 60.49 0ZM87.49 0L87.66-2.03 81.68-2.95 81.68-19.14 87.66-19.14 87.95-21.31 81.68-21.31 81.73-23.95Q81.8-27.32 82.59-28.65 83.39-29.98 84.88-29.98L84.88-29.98Q85.9-29.98 87.07-29.08 88.25-28.17 89.17-27.03L89.17-27.03Q89.88-27.29 90.62-28.11 91.35-28.93 91.35-29.76L91.35-29.76Q91.35-31.15 90.09-31.86 88.83-32.57 86.78-32.57L86.78-32.57Q84.93-32.57 82.95-31.3 80.97-30.03 79.49-27.51 78.02-25 77.63-21.46L77.63-21.46 74.26-20.92 73.96-19.14 77.6-19.14 77.6-2.83 73.89-1.78 73.6 0 87.49 0ZM93.64 9.28Q95.54 9.28 96.89 8.57 98.23 7.86 99.4 6.15 100.57 4.44 101.84 1.29L101.84 1.29 109.92-18.51 112.39-19.51 112.56-21.31 104.21-21.31 103.87-19.48 107.07-18.46 101.79-5.42 96.81-18.58 99.91-19.51 100.13-21.31 89.88-21.31 89.61-19.43 92.64-18.51 99.6 0 99.11 1.2Q98.23 3.37 97.19 4.05 96.15 4.74 94.93 4.74L94.93 4.74Q93.98 4.74 93.11 4.43 92.25 4.13 91.25 3.44L91.25 3.44Q90.47 4.13 90.17 4.83 89.88 5.54 89.88 6.37L89.88 6.37Q89.88 7.08 90.36 7.75 90.83 8.42 91.7 8.85 92.57 9.28 93.64 9.28L93.64 9.28Z" fill="#ff5858" data-fill-palette-color="primary"></path></g></svg></g></svg></g></svg></g></svg></g><g><svg viewBox="0 0 217.53923101546295 217.53923101546295" height="217.53923101546295" width="217.53923101546295"><g><svg></svg></g><g id="icon-0"><svg viewBox="0 0 217.53923101546295 217.53923101546295" height="217.53923101546295" width="217.53923101546295"><g><path d="M0 108.77c0-60.072 48.698-108.77 108.77-108.77 60.072 0 108.77 48.698 108.769 108.77 0 60.072-48.698 108.77-108.769 108.769-60.072 0-108.77-48.698-108.77-108.769zM108.77 204.298c52.759 0 95.528-42.769 95.528-95.528 0-52.759-42.769-95.528-95.528-95.529-52.759 0-95.528 42.769-95.529 95.529 0 52.759 42.769 95.528 95.529 95.528z" data-fill-palette-color="accent" fill="#ed2647" stroke="transparent"></path></g><g transform="matrix(1,0,0,1,54.81175067018435,54.78595418453616)"><svg viewBox="0 0 107.91572967509424 107.96732264639063" height="107.96732264639063" width="107.91572967509424"><g><svg xmlns:dc="http://purl.org/dc/elements/1.1/" xmlns:cc="http://creativecommons.org/ns#" xmlns:rdf="http://www.w3.org/1999/02/22-rdf-syntax-ns#" xmlns:svg="http://www.w3.org/2000/svg" xmlns="http://www.w3.org/2000/svg" xmlns:sodipodi="http://sodipodi.sourceforge.net/DTD/sodipodi-0.dtd" xmlns:inkscape="http://www.inkscape.org/namespaces/inkscape" version="1.1" x="0" y="0" viewBox="12.5246093 12.5 102.95078070000001 103" enable-background="new 0 0 128 128" xml:space="preserve" height="107.96732264639063" width="107.91572967509424" class="icon-cg-0" data-fill-palette-color="accent" id="cg-0"><path d="M64 12.5C50.3 12.5 37.3 17.9 27.6 27.6 7.5 47.6 7.5 80.3 27.6 100.4 37.3 110.1 50.2 115.5 64 115.5 77.8 115.5 90.7 110.1 100.4 100.4 120.5 80.4 120.5 47.7 100.4 27.6 90.7 17.9 77.7 12.5 64 12.5zM64 15.5C77 15.5 89.101 20.499 98.301 29.699 117.201 48.599 117.201 79.401 98.301 98.301 89.101 107.501 77 112.5 64 112.5 51 112.5 38.899 107.501 29.699 98.301 10.799 79.401 10.799 48.599 29.699 29.699 38.899 20.499 51 15.5 64 15.5zM83.801 44L63.301 77.199 50 59.801 45.301 63.5 63.9 87.6 88.9 47.199 83.801 44z" fill="#ed2647" data-fill-palette-color="accent"></path></svg></g></svg></g></svg></g></svg></g></svg></g><defs></defs></svg><rect width="395.52" height="126.0886233073366" fill="none" stroke="none" visibility="hidden"></rect></g></svg></g></svg>